PathFileType	4	(X/Y/Z)	D:\Share\Shared_Data\Ergonomics\Sit To Stand Pertubation\S2\S2 Cal 01.trc
DataRate	CameraRate	NumFrames	NumMarkers	Units	OrigDataRate	OrigDataStartFrame	OrigNumFrames	
100	100	16	21	mm	100	78	206
Frame#	Time	R_ASIS			R_Pelvis			V_Sacral			L_Pelvis			L_ASIS			Clavical			R_Acromium			L_Acromium			Sternum			Torso			R_Thigh_Med			R_Thigh_Lat			R_Thigh			R_Shank_Med			R_Shank_Lat			R_Shank			R_Heel			R_Toe			RAJC			RHJC			RKJC			
		X1	Y1	Z1	X2	Y2	Z2	X3	Y3	Z3	X4	Y4	Z4	X5	Y5	Z5	X6	Y6	Z6	X7	Y7	Z7	X8	Y8	Z8	X9	Y9	Z9	X10	Y10	Z10	X11	Y11	Z11	X12	Y12	Z12	X13	Y13	Z13	X14	Y14	Z14	X15	Y15	Z15	X16	Y16	Z16	X17	Y17	Z17	X18	Y18	Z18	X19	Y19	Z19	X20	Y20	Z20	X21	Y21	Z21	

78	0.77	425.94656	1026.3293	127.75262	352.47711	1029.5552	168.40157	218.88608	1039.9896	-2.6106005	332.89908	1041.0979	-173.82138	419.00473	1037.8521	-137.80414	404.96698	1449.9263	-10.814563	299.72757	1474.3368	194.85425	297.51132	1481.554	-199.43163	450.42676	1289.9755	-14.184212	414.93298	1410.3373	-124.77879	341.46909	494.7518	63.016296	335.81732	516.59296	152.22293	431.05481	674.26862	127.85265	304.81305	106.36821	69.055847	283.42484	100.71436	160.34424	303.08563	372.05576	183.40253	204.59311	60.57468	111.46694	441.8902	64.556908	108.79271	294.118945	103.541285	114.7000435	362.6632451	939.6928702	87.69650232	338.643205	505.67238	107.619613
79	0.78	425.89944	1026.3237	127.7552	352.4433	1029.5656	168.41812	218.77029	1039.9896	-2.6701968	332.82324	1041.1105	-173.80626	418.90533	1037.8435	-137.80139	404.9953	1449.906	-10.889291	299.84781	1474.4406	194.81996	297.53592	1481.5127	-199.49442	450.42917	1289.9427	-14.228109	414.92691	1410.2693	-124.85851	341.41251	494.74268	63.021137	335.79791	516.59589	152.2247	431.01831	674.26459	127.84636	304.79187	106.37078	69.055565	283.4274	100.71364	160.36038	303.05951	372.05954	183.40311	204.59653	60.561111	111.46919	441.8941	64.556198	108.78711	294.109635	103.54221	114.7079725	362.5976935	939.6872029	87.71264156	338.60521	505.669285	107.6229185
80	0.79	425.85199	1026.3242	127.75845	352.38416	1029.5674	168.42447	218.69632	1040.0122	-2.6413531	332.74295	1041.1047	-173.81433	418.81302	1037.8148	-137.81116	405.03964	1449.8885	-10.967506	299.97134	1474.5341	194.78432	297.57437	1481.4723	-199.58366	450.42746	1289.9052	-14.267458	414.93826	1410.2047	-124.92924	341.39526	494.7478	63.022068	335.7623	516.59424	152.23087	430.96133	674.26367	127.84086	304.79852	106.36111	69.047501	283.42758	100.70103	160.36983	303.0426	372.05157	183.40126	204.59338	60.553413	111.4743	441.88464	64.552559	108.77058	294.11305	103.53107	114.7086655	362.5262543	939.690525	87.73478715	338.57878	505.67102	107.626469
81	0.8	425.79535	1026.3208	127.76755	352.29807	1029.5815	168.44418	218.61476	1040.0632	-2.6003013	332.64578	1041.1034	-173.80975	418.72614	1037.8125	-137.79155	405.0986	1449.8693	-11.028345	300.08487	1474.6095	194.68307	297.5993	1481.4148	-199.62518	450.42078	1289.8663	-14.285338	414.94775	1410.1216	-124.9978	341.32465	494.74063	63.031322	335.72577	516.59387	152.23109	430.90503	674.26935	127.84432	304.80255	106.36765	69.058678	283.43015	100.69945	160.36365	303.00589	372.04446	183.40973	204.58897	60.557491	111.45976	441.88776	64.561401	108.78814	294.11635	103.53355	114.711164	362.4390774	939.7066173	87.75383077	338.52521	505.66725	107.631206
82	0.81	425.73782	1026.318	127.76992	352.22809	1029.5867	168.43468	218.52107	1040.071	-2.5732508	332.57294	1041.1038	-173.78781	418.64792	1037.7891	-137.77702	405.14798	1449.8573	-11.105641	300.20978	1474.6533	194.59784	297.61566	1481.3416	-199.67921	450.41272	1289.8297	-14.338188	414.94168	1410.0291	-125.07969	341.25735	494.73294	63.043671	335.68719	516.59241	152.24376	430.82965	674.27264	127.83487	304.77783	106.36158	69.06826	283.41846	100.70554	160.37645	302.96475	372.03961	183.42763	204.58244	60.544628	111.48463	441.87885	64.561371	108.78783	294.098145	103.53356	114.722355	362.3635905	939.7107285	87.7707086	338.47227	505.662675	107.6437155
83	0.82	425.66666	1026.3239	127.77557	352.1546	1029.5927	168.44272	218.42279	1040.0656	-2.6271052	332.47055	1041.0994	-173.7847	418.57248	1037.7671	-137.79117	405.2034	1449.8195	-11.170075	300.3627	1474.7427	194.49994	297.63412	1481.2676	-199.76147	450.39526	1289.7753	-14.387574	414.95636	1409.9346	-125.15819	341.19803	494.72601	63.051247	335.62393	516.59125	152.2487	430.76233	674.27539	127.84483	304.76999	106.34763	69.077599	283.41074	100.69495	160.384	302.94611	372.02704	183.4305	204.58548	60.540081	111.46907	441.88687	64.547287	108.80245	294.090365	103.52129	114.7307995	362.2860222	939.7068347	87.7833625	338.41098	505.65863	107.6499735
84	0.83	425.59958	1026.3179	127.7723	352.07254	1029.5925	168.44141	218.32816	1040.1047	-2.596127	332.35278	1041.0953	-173.79393	418.48691	1037.7557	-137.7899	405.24893	1449.7716	-11.266479	300.50278	1474.8221	194.44557	297.65491	1481.2034	-199.83667	450.41644	1289.7294	-14.446707	414.96207	1409.8479	-125.2339	341.13931	494.72745	63.060425	335.56799	516.58545	152.26526	430.68301	674.26642	127.85191	304.77023	106.35925	69.071983	283.41882	100.70107	160.38426	302.90387	372.03366	183.4234	204.58951	60.53133	111.46465	441.88101	64.567307	108.79843	294.094525	103.53016	114.7281215	362.1906487	939.7160491	87.78833321	338.35365	505.65645	107.6628425
85	0.84	425.5553	1026.3126	127.77178	352.01981	1029.6058	168.43988	218.25723	1040.136	-2.6152382	332.27618	1041.0883	-173.78801	418.41162	1037.738	-137.78848	405.30396	1449.7515	-11.330257	300.64291	1474.9021	194.40904	297.65091	1481.1337	-199.86571	450.37006	1289.6915	-14.47623	414.98175	1409.7739	-125.27916	341.07611	494.7233	63.069328	335.50565	516.59357	152.27361	430.60876	674.26025	127.87142	304.76501	106.36012	69.093941	283.41827	100.69801	160.3904	302.85706	372.03247	183.42839	204.58174	60.537422	111.47596	441.87964	64.573196	108.80192	294.09164	103.529065	114.7421705	362.1212396	939.7218161	87.80063441	338.29088	505.658435	107.671469
86	0.85	425.5141	1026.3036	127.76256	351.92599	1029.6062	168.4324	218.19022	1040.1687	-2.6320992	332.19882	1041.0829	-173.77466	418.33939	1037.7133	-137.78188	405.40546	1449.7106	-11.416904	300.80045	1474.9674	194.34148	297.68045	1481.087	-199.89828	450.36993	1289.6351	-14.497936	414.99136	1409.7174	-125.33058	341.03421	494.72195	63.077732	335.45621	516.60614	152.27927	430.53006	674.23688	127.90388	304.75021	106.36091	69.103401	283.39929	100.69727	160.38957	302.79047	372.00641	183.42668	204.58208	60.504734	111.48568	441.86487	64.559006	108.78677	294.07475	103.52909	114.7464855	362.0522276	939.7296778	87.8079353	338.24521	505.664045	107.678501
87	0.86	425.45081	1026.3088	127.76585	351.8627	1029.6072	168.42557	218.11336	1040.2084	-2.6216683	332.10434	1041.087	-173.78549	418.2439	1037.6816	-137.79704	405.46616	1449.6844	-11.480733	300.93893	1475.036	194.30728	297.70135	1481.0297	-199.97031	450.16022	1289.6438	-14.492386	414.99423	1409.6571	-125.37247	340.9422	494.7081	63.077568	335.38531	516.60651	152.28716	430.44504	674.23615	127.90244	304.74841	106.35962	69.112709	283.3989	100.68582	160.38635	302.7543	372.0127	183.43384	204.57426	60.511909	111.49929	441.88037	64.577034	108.79247	294.073655	103.52272	114.7495295	361.9612888	939.7400278	87.8291523	338.163755	505.657305	107.682364
88	0.87	425.40295	1026.3014	127.75493	351.75616	1029.5995	168.44083	218.03807	1040.2402	-2.648576	332.01224	1041.0745	-173.82065	418.17935	1037.6757	-137.79417	405.5531	1449.6575	-11.53485	301.08542	1475.1262	194.29063	297.70929	1480.97	-200.05373	450.16785	1289.5873	-14.507791	415.013	1409.5771	-125.42387	340.85516	494.69351	63.07769	335.32745	516.61713	152.28667	430.37375	674.23633	127.91937	304.74457	106.36863	69.1035	283.39243	100.68143	160.39851	302.71634	372.004	183.45662	204.56747	60.514507	111.47999	441.87662	64.576859	108.78793	294.0685	103.52503	114.751005	361.8905935	939.7480477	87.82508972	338.091305	505.65532	107.68218
89	0.88	425.34763	1026.3011	127.74712	351.66098	1029.6133	168.43089	217.98743	1040.2601	-2.6288645	331.91055	1041.0673	-173.83705	418.10638	1037.6576	-137.78267	405.60126	1449.6344	-11.581113	301.24411	1475.2079	194.26083	297.74088	1480.9368	-200.05449	450.15619	1289.5579	-14.541779	415.02554	1409.5179	-125.47166	340.77722	494.6842	63.05019	335.24945	516.59711	152.29347	430.27499	674.22998	127.9068	304.72665	106.35777	69.114182	283.38779	100.67798	160.40149	302.66785	372.00125	183.44568	204.55853	60.505642	111.4793	441.86957	64.577835	108.79626	294.05722	103.517875	114.757836	361.8229637	939.7598601	87.83137686	338.013335	505.640655	107.67183
90	0.89	425.2854	1026.2866	127.7466	351.61899	1029.6155	168.4213	217.89824	1040.2728	-2.684356	331.79626	1041.0658	-173.8833	418.02405	1037.6519	-137.78323	405.68655	1449.6066	-11.641134	301.40427	1475.2797	194.20023	297.80005	1480.9579	-200.00797	450.18472	1289.5334	-14.545772	415.04245	1409.4601	-125.51567	340.73648	494.67944	63.049763	335.202	516.61719	152.2899	430.19504	674.22827	127.90006	304.72336	106.35811	69.115616	283.38766	100.6804	160.40913	302.61862	372.00995	183.45312	204.56372	60.500893	111.48543	441.86755	64.574715	108.79818	294.05551	103.519255	114.762373	361.745282	939.7524315	87.83322695	337.96924	505.648315	107.6698315
91	0.9	425.22372	1026.2915	127.73753	351.53116	1029.626	168.4182	217.84245	1040.3005	-2.6438854	331.7554	1041.0684	-173.88522	417.9689	1037.6339	-137.79085	405.74887	1449.6016	-11.670363	301.54611	1475.3254	194.11613	297.83386	1480.9525	-200.05208	450.17706	1289.4958	-14.55178	415.07474	1409.4126	-125.54921	340.65494	494.67825	63.056236	335.12909	516.61847	152.29028	430.11746	674.22388	127.88924	304.73361	106.36042	69.123749	283.38004	100.67448	160.40076	302.57803	372.008	183.45598	204.55635	60.501621	111.48024	441.87292	64.592522	108.80209	294.056825	103.51745	114.7622545	361.6690599	939.765785	87.8314128	337.892015	505.64836	107.673258
92	0.91	425.17438	1026.293	127.72581	351.45508	1029.6312	168.40547	217.77022	1040.313	-2.678124	331.68225	1041.0675	-173.90451	418.83585	1037.7511	-137.81975	405.82941	1449.5881	-11.699882	301.68817	1475.4019	194.10306	297.82016	1480.8728	-200.13205	450.1951	1289.4619	-14.570069	415.1022	1409.3806	-125.58742	340.60922	494.66214	63.005863	335.07697	516.61462	152.28185	430.05643	674.24518	127.86983	304.74182	106.36517	69.116272	283.38705	100.68405	160.41188	302.55453	372.01114	183.43547	204.54892	60.499348	111.48951	441.86792	64.582161	108.79963	294.064435	103.52461	114.764076	361.6589282	939.7785523	87.56523187	337.843095	505.63838	107.6438565
93	0.92	425.09369	1026.2872	127.71342	351.37057	1029.6261	168.36491	217.71684	1040.3329	-2.6938477	331.63559	1041.0717	-173.91203	417.85083	1037.6042	-137.8147	405.90152	1449.5724	-11.729425	301.82748	1475.4819	194.12692	297.86209	1480.8719	-200.11102	450.20248	1289.437	-14.591544	415.13089	1409.3431	-125.61475	340.57782	494.67151	63.011223	335.05014	516.6228	152.27347	429.99127	674.24432	127.83982	304.71564	106.36079	69.117935	283.3909	100.68822	160.42905	302.49612	372.01117	183.45309	204.54666	60.505737	111.48668	441.86865	64.585747	108.79119	294.05327	103.524505	114.7734925	361.5191639	939.772997	87.81423256	337.81398	505.647155	107.6423465
